<?xml version="1.0" encoding="UTF-8" standalone="no"?>
<!-- Created with Inkscape (http://www.inkscape.org/) -->

<svg
   xmlns:dc="http://purl.org/dc/elements/1.1/"
   xmlns:cc="http://creativecommons.org/ns#"
   xmlns:rdf="http://www.w3.org/1999/02/22-rdf-syntax-ns#"
   xmlns:svg="http://www.w3.org/2000/svg"
   xmlns="http://www.w3.org/2000/svg"
   xmlns:sodipodi="http://sodipodi.sourceforge.net/DTD/sodipodi-0.dtd"
   xmlns:inkscape="http://www.inkscape.org/namespaces/inkscape"
   width="300"
   height="300"
   id="svg3005"
   version="1.1"
   inkscape:version="0.92.1 r15371"
   sodipodi:docname="cattleya-07D.svg">
  <title
     id="title4154">Cattleya</title>
  <defs
     id="defs3007" />
  <sodipodi:namedview
     id="base"
     pagecolor="#ffffff"
     bordercolor="#666666"
     borderopacity="1.0"
     inkscape:pageopacity="0.0"
     inkscape:pageshadow="2"
     inkscape:zoom="1.7433333"
     inkscape:cx="150"
     inkscape:cy="150"
     inkscape:document-units="px"
     inkscape:current-layer="layer1"
     showgrid="false"
     inkscape:window-width="1215"
     inkscape:window-height="776"
     inkscape:window-x="65"
     inkscape:window-y="24"
     inkscape:window-maximized="1"
     inkscape:snap-global="false"
     inkscape:snap-bbox="true"
     inkscape:snap-nodes="false"
     inkscape:bbox-nodes="true" />
  <metadata
     id="metadata3010">
    <rdf:RDF>
      <cc:Work
         rdf:about="">
        <dc:format>image/svg+xml</dc:format>
        <dc:type
           rdf:resource="http://purl.org/dc/dcmitype/StillImage" />
        <dc:title>Cattleya</dc:title>
        <dc:date>Julho 2018</dc:date>
        <dc:creator>
          <cc:Agent>
            <dc:title>jpenrici</dc:title>
          </cc:Agent>
        </dc:creator>
        <dc:publisher>
          <cc:Agent>
            <dc:title>Open Clip Art Library</dc:title>
          </cc:Agent>
        </dc:publisher>
        <cc:license
           rdf:resource="http://creativecommons.org/publicdomain/zero/1.0/" />
        <dc:subject>
          <rdf:Bag>
            <rdf:li>cattlleya</rdf:li>
            <rdf:li>plant</rdf:li>
            <rdf:li>flor</rdf:li>
            <rdf:li>orquidea</rdf:li>
            <rdf:li>flora</rdf:li>
            <rdf:li>nature</rdf:li>
            <rdf:li>clip art</rdf:li>
            <rdf:li>clipart</rdf:li>
            <rdf:li>svg</rdf:li>
          </rdf:Bag>
        </dc:subject>
        <dc:identifier />
      </cc:Work>
      <cc:License
         rdf:about="http://creativecommons.org/publicdomain/zero/1.0/">
        <cc:permits
           rdf:resource="http://creativecommons.org/ns#Reproduction" />
        <cc:permits
           rdf:resource="http://creativecommons.org/ns#Distribution" />
        <cc:permits
           rdf:resource="http://creativecommons.org/ns#DerivativeWorks" />
      </cc:License>
    </rdf:RDF>
  </metadata>
  <g
     inkscape:label="Camada 1"
     inkscape:groupmode="layer"
     id="layer1"
     transform="translate(0,-752.36218)">
    <g
       id="g4711"
       transform="translate(-0.11209519,-3.4061425)">
      <path
         inkscape:connector-curvature="0"
         id="path5061"
         d="m 151.60607,757.30179 c -6.5711,3.92795 -15.69808,7.7425 -20.5894,13.73559 -6.18161,8.07577 -7.16888,18.78321 -9.44942,28.5008 -2.30403,9.81758 -3.7923,19.8537 -4.22737,29.89935 -0.0998,2.30163 -0.11195,4.6038 -0.0902,6.90549 -5.99194,-2.71491 -13.58981,-5.04183 -18.756465,-1.6009 -3.550252,2.36444 -0.273978,9.07217 -3.160491,12.17639 -2.523266,2.71337 -8.049298,6.41682 -10.608545,3.73541 -2.685467,-2.81356 6.316105,-6.9513 4.839023,-10.51198 -2.062216,-4.9712 -10.499893,-8.57261 -15.335267,-6.00288 -0.886887,0.47132 0.04381,2.11678 -0.569535,2.89829 -0.920061,1.17208 -2.569226,1.92833 -4.084985,1.94409 -2.083209,0.0219 -3.815696,-1.63361 -5.671261,-2.55511 -2.134701,-1.06029 -3.879777,-3.32942 -6.274885,-3.41603 -2.676585,-0.0966 -4.603531,3.344 -7.281585,3.30099 -3.101992,-0.0495 -5.200007,-4.11784 -8.302339,-4.0945 -5.105403,0.0391 -8.817447,5.08516 -13.552465,6.94319 -5.993777,2.35189 -15.005478,0.0393 -18.6221042,5.25103 -1.9256529,2.77468 -0.4632454,8.57534 0.6156562,11.89863 -3.4275483,1.01097 -9.1745643,3.11507 -10.4400901,6.22903 -2.3765238,5.84772 4.6748904,11.77655 6.0663186,17.9174 1.0992002,4.85124 -1.0827314,10.68218 1.768762,14.80293 3.5941825,9.47922 9.2008195,16.74474 21.2892855,18.2824 0.84291,1.22583 1.134049,2.97728 0.659766,4.37813 -0.316191,0.93392 -2.237048,1.11441 -2.135737,2.09282 0.552316,5.3339 8.370219,10.0735 13.750989,8.921 6.200886,1.34539 1.07963,0.95323 0.467259,10.22036 4.82e-4,4.96937 4.176263,9.07713 8.801685,12.2022 -3.350942,3.80792 -6.54596,7.7757 -9.575761,11.87687 -6.386587,8.64472 -11.736564,19.29494 -14.142052,30.31582 -1.83464,8.4057 -3.063367,29.9711 -2.689235,31.6094 7.654544,3.213 17.286778,-3.2983 27.53007,2.341 10.775893,0.046 20.181151,-6.3489 29.655787,-10.9108 1.132848,-0.5454 2.259268,-1.1061 3.381099,-1.6763 0.0037,0.044 0.0015,0.086 0.0081,0.129 0.343462,2.3189 2.83943,4.9344 5.324327,4.9038 3.61445,-0.04 4.153213,-6.2618 7.592428,-7.3201 1.699326,-0.5227 4.011957,-0.3445 5.278187,0.8392 0.68889,0.6439 0.94162,1.8825 0.50938,2.7039 -1.74787,3.322 -7.026178,3.3382 -10.490221,5.0962 -1.764649,0.8954 -4.721116,0.9543 -5.242107,2.7772 -0.912831,3.195 2.30679,6.9045 5.362436,8.5185 1.391807,0.7348 3.882136,-1.2957 4.79088,-0.06 0.978752,1.3314 -2.3056,2.9721 -1.867014,4.5389 0.318046,1.1367 1.657456,2.1211 2.89979,2.2259 2.704056,0.2287 4.449506,-3.9727 7.149236,-3.7037 1.9123,0.1906 3.72223,1.8493 4.35172,3.5609 0.79965,2.1744 -2.36605,4.6946 -1.36769,6.7944 0.99622,2.0953 3.83547,3.3708 6.26687,3.5371 2.57337,0.1764 4.65935,-3.3865 7.16127,-2.7972 1.98321,0.4675 2.04832,3.6204 3.88244,4.4695 3.44027,1.5923 7.70265,0.8068 11.50495,0.3095 1.65264,-0.2161 4.77885,-1.4125 4.77885,-1.4125 4.79214,12.1631 1.46282,-6.6909 5.9841,1.2596 3.81377,0.3881 8.0972,1.05 11.49494,-0.6406 1.81142,-0.9014 1.79375,-4.0563 3.76413,-4.5806 2.48573,-0.6607 4.66161,2.841 7.22944,2.5909 2.42617,-0.2365 5.23304,-1.5923 6.17461,-3.7157 0.9436,-2.1273 -2.28517,-4.5544 -1.54215,-6.7508 0.58493,-1.729 2.35283,-3.4385 4.25947,-3.6839 2.69176,-0.3464 4.54435,3.8017 7.24148,3.4956 1.23914,-0.1407 2.55114,-1.162 2.83964,-2.3072 0.39783,-1.5789 -2.92926,-3.1247 -1.98534,-4.4834 0.87641,-1.262 3.41866,0.6946 4.79089,-0.082 3.01271,-1.7006 6.13707,-5.5017 5.14183,-8.669 -0.56801,-1.8076 -3.5271,-1.7799 -5.31429,-2.6246 -3.50829,-1.6578 -8.78331,-1.5238 -10.61657,-4.7947 -0.45335,-0.8089 -0.23477,-2.0541 0.43718,-2.7178 1.23509,-1.2198 3.5459,-1.4618 5.25815,-0.988 3.46533,0.9591 4.16277,7.1636 7.77692,7.1001 2.48482,-0.036 4.91071,-2.7266 5.19398,-5.0548 0.23568,-1.937 -2.20285,-3.2496 -3.21867,-4.9831 4.93484,3.0593 10.02897,5.8569 15.24101,8.3833 9.46344,4.5875 18.85376,11.0054 29.62973,10.988 10.25706,-5.6115 19.87371,0.927 27.53607,-2.2653 0.37816,-1.6374 -0.79896,-23.2067 -2.61302,-31.61734 -2.37849,-11.02742 -7.70043,-21.69175 -14.06585,-30.35365 -2.47437,-3.367 -5.06028,-6.64636 -7.75084,-9.8216 5.86213,-3.28078 12.65945,-8.20545 12.66006,-14.553 -0.61237,-9.26716 -5.73364,-8.875 0.46726,-10.22037 5.38076,1.1525 13.19869,-3.58711 13.75099,-8.92101 0.10134,-0.9784 -1.81956,-1.15889 -2.13574,-2.09282 -0.47429,-1.40084 -0.18315,-3.1523 0.65976,-4.37812 12.08846,-1.53766 17.69509,-8.80319 21.28929,-18.28242 2.85149,-4.12075 0.66755,-9.95169 1.76677,-14.80292 1.39142,-6.14086 8.44484,-12.06967 6.06832,-17.91739 -1.26553,-3.11398 -7.01254,-5.21805 -10.44009,-6.22903 1.0789,-3.32329 2.5413,-9.12395 0.61565,-11.89863 -3.61665,-5.2117 -12.62832,-2.89913 -18.62211,-5.25105 -4.73503,-1.85802 -8.44705,-6.90407 -13.55245,-6.94317 -3.10234,-0.0233 -5.20034,4.04502 -8.30234,4.09449 -2.67807,0.0429 -4.60699,-3.39757 -7.28359,-3.30099 -2.3951,0.0867 -4.13817,2.35574 -6.27288,3.41605 -1.85558,0.92148 -3.58805,2.57693 -5.67127,2.55508 -1.51576,-0.0157 -3.16694,-0.77198 -4.08698,-1.94408 -0.61336,-0.78152 0.31936,-2.42696 -0.56754,-2.89828 -4.83537,-2.56975 -13.27307,1.03167 -15.33526,6.00286 -1.47711,3.5607 7.52448,7.69843 4.83903,10.512 -2.55927,2.68141 -8.0873,-1.02205 -10.61056,-3.73543 -2.8865,-3.10419 0.39176,-9.81194 -3.1585,-12.17636 -4.46046,-2.97064 -10.73315,-1.6332 -16.22365,0.53164 0.004,-1.94542 -0.02,-3.89091 -0.10428,-5.83625 -0.43506,-10.04564 -1.92334,-20.08177 -4.22737,-29.89935 -2.28055,-9.71759 -3.26981,-20.42504 -9.45142,-28.50079 -4.71465,-6.15928 -18.7816,-13.08527 -20.11814,-13.7356 z"
         style="fill:#680117;fill-opacity:1;fill-rule:evenodd;stroke:none;stroke-width:1.24340808px;stroke-linecap:butt;stroke-linejoin:miter;stroke-opacity:1" />
      <g
         style="stroke:#d64832;stroke-opacity:1"
         id="g4688">
        <path
           style="fill:#edac70;fill-opacity:1;fill-rule:evenodd;stroke:#d64832;stroke-width:1.21758211px;stroke-linecap:butt;stroke-linejoin:miter;stroke-opacity:1"
           d="m 133.00932,773.00725 c -6.0205,7.95101 -6.98143,18.49392 -9.20253,28.06141 -2.24397,9.66593 -3.69377,19.547 -4.11751,29.43747 -0.56389,13.16178 1.11967,26.32747 2.10929,39.46654 0.77421,10.27917 -3.48365,22.52312 2.99297,30.78564 6.01459,7.673 28.01615,10.69731 28.01615,10.69731 5.14242,-0.0451 21.67963,-3.41682 28.0656,-10.69731 6.4766,-8.26252 2.21876,-20.50647 2.99297,-30.78564 0.98962,-13.13907 2.67532,-26.30476 2.11142,-39.46654 -0.42372,-9.89047 -1.87353,-19.77154 -4.1175,-29.43747 -2.22111,-9.56749 -3.18419,-20.1104 -9.20468,-28.06141 -4.59176,-6.06414 -18.2924,-12.88339 -19.5941,-13.52368 -6.39982,3.86728 -15.28825,7.62315 -20.05208,13.52368 z"
           id="path4836"
           inkscape:connector-curvature="0"
           sodipodi:nodetypes="cscccccccsccc"
           inkscape:transform-center-x="1.0935208"
           inkscape:transform-center-y="-61.948108" />
        <path
           inkscape:transform-center-y="39.197776"
           inkscape:transform-center-x="48.814919"
           sodipodi:nodetypes="cscccccccsccc"
           inkscape:connector-curvature="0"
           id="path4841"
           d="m 55.891012,1025.5066 c 10.495015,0.045 19.656957,-6.2496 28.884639,-10.7411 9.322617,-4.5377 18.281249,-9.9402 26.552759,-16.27746 11.00735,-8.43351 20.49628,-18.90332 30.4335,-28.72712 7.77431,-7.68558 20.54166,-12.15278 22.82709,-23.62793 2.12237,-10.65667 -10.33203,-32.6208 -10.33203,-32.6208 -3.51829,-4.62257 -17.43639,-17.29603 -27.63756,-18.12744 -11.05527,-0.24606 -18.05716,11.92686 -26.879802,18.21129 -11.27723,8.03281 -23.047282,15.45378 -33.291088,24.90776 -7.697738,7.10425 -14.693217,15.13059 -20.977326,23.72936 -6.220125,8.51125 -11.429485,18.9973 -13.772272,29.84803 -1.786824,8.27581 -2.984816,29.50801 -2.620433,31.12101 7.455028,3.1632 16.836223,-3.2476 26.812523,2.3044 z"
           style="fill:#edac70;fill-opacity:1;fill-rule:evenodd;stroke:#d64832;stroke-width:1.32855654px;stroke-linecap:butt;stroke-linejoin:miter;stroke-opacity:1" />
        <path
           style="fill:#edac70;fill-opacity:1;fill-rule:evenodd;stroke:#d64832;stroke-width:1.32855654px;stroke-linecap:butt;stroke-linejoin:miter;stroke-opacity:1"
           d="m 241.63281,1025.7696 c -10.49508,0.017 -19.64176,-6.3026 -28.85853,-10.8191 -9.31161,-4.5629 -18.25712,-9.9896 -26.51327,-16.34932 -10.98689,-8.46317 -20.45043,-18.95861 -30.36384,-28.80926 -7.75568,-7.70669 -20.51216,-12.20819 -22.76981,-23.68956 -2.09655,-10.66229 10.41098,-32.59285 10.41098,-32.59285 3.52948,-4.61294 17.47821,-17.2488 27.68136,-18.05251 11.05582,-0.21627 18.02821,11.97569 26.83563,18.28391 11.25774,8.06321 23.00979,15.51603 33.23066,24.99772 7.68053,7.12487 14.65655,15.17025 20.91981,23.78599 6.1995,8.52809 11.38346,19.02805 13.69995,29.88513 1.76678,8.28075 2.91337,29.51595 2.54507,31.12795 -7.46264,3.1431 -16.82829,-3.293 -26.81801,2.2319 z"
           id="path4843"
           inkscape:connector-curvature="0"
           sodipodi:nodetypes="cscccccccsccc"
           inkscape:transform-center-x="-48.667999"
           inkscape:transform-center-y="39.335358" />
      </g>
      <g
         style="stroke:#edac70;stroke-opacity:1"
         id="g4692">
        <path
           style="fill:#d64832;fill-opacity:1;fill-rule:evenodd;stroke:#edac70;stroke-width:1.14153028px;stroke-linecap:butt;stroke-linejoin:miter;stroke-opacity:1"
           d="m 5.4508144,863.09509 c -2.3145868,5.75739 4.5536476,11.59461 5.9088036,17.64063 1.07055,4.77631 -1.054725,10.5175 1.722446,14.57453 3.500497,9.33282 8.960097,16.48607 20.733476,17.99993 0.820943,1.20687 1.104393,2.93112 0.642469,4.31034 -0.307953,0.91948 -2.179217,1.09737 -2.080553,2.06067 0.537924,5.25145 8.153272,9.91859 13.393792,8.78385 6.039262,1.32464 1.050298,0.93794 0.453895,10.06195 6.28e-4,6.64562 7.500924,11.73185 13.415421,14.94448 7.411521,4.02577 16.812143,5.86937 25.067713,4.02192 4.29186,-0.96058 7.819328,-4.27387 10.830501,-7.43169 7.245462,-7.2734 5.767162,6.39049 6.706362,6.9604 16.99444,0.60933 28.38823,0.87759 43.98781,-28.97863 2.59709,-3.22339 2.46207,-21.82822 -0.24428,-20.36476 -0.25491,-3.05489 -2.28007,-6.47711 -0.77833,-9.16285 0.87774,-1.56991 4.00469,-0.89978 4.84232,-2.49064 1.28813,-2.44658 0.29066,-5.80981 -1.11536,-8.19275 -0.55235,-0.93613 -2.20649,-0.96908 -2.6236,-1.97066 -1.96086,-4.70836 6.68082,-12.60444 2.18108,-15.11466 -3.64475,-2.03327 -5.7665,8.97782 -9.7741,7.77446 -1.8107,-0.54365 -1.79201,-3.48065 -1.67176,-5.33909 0.0933,-1.44104 1.50207,-2.53638 1.81826,-3.94651 0.94801,-4.22768 1.73389,-8.9605 0.11513,-12.9865 -3.11377,-7.74412 -9.9699,-14.33425 -17.53403,-18.07546 -6.03625,-2.98547 -14.54011,-6.19957 -20.11554,-2.4459 -3.457724,2.32791 -0.26551,8.93173 -3.076789,11.98798 -2.45749,2.67147 -7.84023,6.31757 -10.332774,3.67758 -2.615469,-2.7701 6.150723,-6.84412 4.712134,-10.3498 -2.008462,-4.89441 -10.225784,-8.43871 -14.93512,-5.90867 -0.863773,0.46404 0.04405,2.08332 -0.553364,2.85276 -0.896074,1.15399 -2.502643,1.89796 -3.978897,1.91347 -2.028912,0.0215 -3.716646,-1.60762 -5.523848,-2.51487 -2.079065,-1.04392 -3.777889,-3.27898 -6.11057,-3.36425 -2.606825,-0.0951 -4.484167,3.29337 -7.092423,3.25102 -3.02114,-0.0487 -5.064535,-4.05431 -8.086005,-4.03133 -4.972334,0.0385 -8.588059,5.00607 -13.199667,6.8354 -5.83755,2.31557 -14.614392,0.0385 -18.136761,5.16969 -1.875459,2.73182 -0.451175,8.4429 0.599607,11.71486 -3.338211,0.99535 -8.9349098,3.06723 -10.1674486,6.1331 z"
           id="path4822"
           inkscape:connector-curvature="0"
           sodipodi:nodetypes="csccccccsccccccccccccscsccccccccsccsccc"
           inkscape:transform-center-x="63.29662"
           inkscape:transform-center-y="-28.125508" />
        <path
           inkscape:transform-center-y="-28.125508"
           inkscape:transform-center-x="-63.296619"
           sodipodi:nodetypes="csccccccsccccccccccccscsccccccccsccsccc"
           inkscape:connector-curvature="0"
           id="path4830"
           d="m 297.7625,863.09509 c 2.31459,5.75739 -4.55365,11.59461 -5.9088,17.64063 -1.07055,4.77631 1.05472,10.5175 -1.72244,14.57453 -3.50051,9.33282 -8.96011,16.48607 -20.73347,17.99993 -0.82096,1.20687 -1.10441,2.93112 -0.64248,4.31034 0.30795,0.91948 2.17921,1.09737 2.08055,2.06067 -0.53791,5.25145 -8.15327,9.91859 -13.39379,8.78385 -6.03926,1.32464 -1.0503,0.93794 -0.45389,10.06195 -6.3e-4,6.64562 -7.50093,11.73185 -13.41543,14.94448 -7.41152,4.02577 -16.81214,5.86937 -25.06771,4.02192 -4.29186,-0.96058 -7.81933,-4.27387 -10.8305,-7.43169 -7.24546,-7.2734 -5.76717,6.39049 -6.70637,6.9604 -16.99444,0.60933 -28.38823,0.87759 -43.98781,-28.97863 -2.59709,-3.22339 -2.46207,-21.82822 0.24429,-20.36476 0.2549,-3.05489 2.28006,-6.47711 0.77832,-9.16285 -0.87773,-1.56991 -4.00469,-0.89978 -4.84231,-2.49064 -1.28814,-2.44658 -0.29067,-5.80981 1.11536,-8.19275 0.55235,-0.93613 2.20648,-0.96908 2.6236,-1.97066 1.96086,-4.70836 -6.68082,-12.60444 -2.18108,-15.11466 3.64474,-2.03327 5.76649,8.97782 9.7741,7.77446 1.81069,-0.54365 1.792,-3.48065 1.67175,-5.33909 -0.0933,-1.44104 -1.50206,-2.53638 -1.81825,-3.94651 -0.94801,-4.22768 -1.73389,-8.9605 -0.11513,-12.9865 3.11377,-7.74412 9.9699,-14.33425 17.53402,-18.07546 6.03626,-2.98547 14.54011,-6.19957 20.11555,-2.4459 3.45772,2.32791 0.26551,8.93173 3.07678,11.98798 2.45749,2.67147 7.84023,6.31757 10.33278,3.67758 2.61547,-2.7701 -6.15073,-6.84412 -4.71212,-10.3498 2.00845,-4.89441 10.22577,-8.43871 14.9351,-5.90867 0.86378,0.46404 -0.044,2.08332 0.55337,2.85276 0.89607,1.15399 2.50264,1.89796 3.97889,1.91347 2.02892,0.0215 3.71665,-1.60762 5.52385,-2.51487 2.07908,-1.04392 3.7779,-3.27898 6.11057,-3.36425 2.60684,-0.0951 4.48417,3.29337 7.09243,3.25102 3.02114,-0.0487 5.06454,-4.05431 8.08601,-4.03133 4.97234,0.0385 8.58805,5.00607 13.19966,6.8354 5.83755,2.31557 14.61439,0.0385 18.13677,5.16969 1.87545,2.73182 0.45116,8.4429 -0.59962,11.71486 3.33821,0.99535 8.93492,3.06723 10.16746,6.1331 z"
           style="fill:#d64832;fill-opacity:1;fill-rule:evenodd;stroke:#edac70;stroke-width:1.14153028px;stroke-linecap:butt;stroke-linejoin:miter;stroke-opacity:1" />
      </g>
      <g
         id="g4681">
        <path
           style="fill:#fe7339;fill-opacity:1;fill-rule:evenodd;stroke:none;stroke-width:1.31561828px;stroke-linecap:butt;stroke-linejoin:miter;stroke-opacity:1"
           d="m 50.929775,911.54706 c 5.092028,1.52029 4.810559,19.84213 13.067895,22.39444 8.349828,2.5809 14.948169,-11.24793 23.687768,-11.23902 6.987968,0.007 12.171668,9.0855 18.921802,9.02503 9.03152,-0.0808 14.88521,-14.3645 23.85301,-12.51569 25.7516,5.30865 32.57695,-11.41773 14.49944,-24.40132 -7.72067,-5.54505 -11.24217,-2.96432 -14.70006,-7.18135 -9.07645,-11.06906 1.96986,-35.31656 -10.92559,-41.53052 -12.92031,-6.22594 -25.436982,20.78378 -39.366013,17.36632 -5.43873,-1.33438 -5.627447,-10.5339 -10.486996,-13.12502 -8.752159,-4.66664 -24.238559,-4.37972 -29.411473,-2.11441 -42.0909694,9.26245 -22.683008,54.04922 10.860217,63.32154 z"
           id="path4858"
           inkscape:connector-curvature="0"
           sodipodi:nodetypes="caaassaaaacc"
           inkscape:transform-center-x="55.821228"
           inkscape:transform-center-y="-20.577443" />
        <path
           inkscape:transform-center-y="-20.577443"
           inkscape:transform-center-x="-55.821224"
           sodipodi:nodetypes="caaaassaaaacc"
           inkscape:connector-curvature="0"
           id="path4873"
           d="m 274.30714,901.42929 c -2.69319,5.56775 -12.81139,11.76127 -19.27787,17.57475 -7.93948,7.13772 -13.29033,21.26364 -23.96656,21.24721 -8.78739,-0.0135 -10.97311,-16.30796 -19.67246,-17.54877 -6.91796,-0.98673 -12.17168,9.0855 -18.92181,9.02503 -9.03152,-0.0808 -14.88521,-14.3645 -23.85301,-12.51569 -25.7516,5.30865 -25.69358,-11.99134 -7.61608,-24.97493 7.72068,-5.54505 15.04747,-13.63301 20.43621,-22.09532 3.8163,-5.993 1.54967,-16.88216 8.0575,-19.73319 9.65153,-4.22825 19.45832,13.86378 29.61459,11.05657 5.39764,-1.49192 5.57278,-10.64891 10.487,-13.12502 7.3097,-3.68311 19.1686,-2.86702 24.34152,-0.60171 26.28003,0.98724 40.88411,27.46118 20.37097,51.69107 z"
           style="fill:#fe7339;fill-opacity:1;fill-rule:evenodd;stroke:none;stroke-width:1.31561828px;stroke-linecap:butt;stroke-linejoin:miter;stroke-opacity:1" />
      </g>
      <path
         inkscape:transform-center-x="-0.72802928"
         inkscape:transform-center-y="73.224252"
         sodipodi:nodetypes="cccccccccccsccccccccccccccccccccscccccccccccccccccccccccccccsccccccccccccccccccccscccccccccccccc"
         inkscape:connector-curvature="0"
         id="path4820"
         d="m 135.75061,901.1226 c -0.64728,-0.006 -1.23502,0.0953 -1.70276,0.34999 -2.439,1.32672 -0.44786,6.02161 -2.72118,7.59373 -3.15252,2.17988 -9.0872,-2.6351 -11.66807,0.14516 -2.075,2.23535 3.79008,7.4797 1.02702,8.8832 -4.18987,2.1282 -6.09611,-9.06114 -10.82857,-8.76156 -2.96641,0.18777 -3.24153,5.24386 -6.00225,6.30148 -3.48007,1.33314 -8.412242,-3.13233 -11.210433,-0.74971 -2.21066,1.88227 1.061016,5.98662 -0.378063,8.45573 -2.454388,4.21131 -10.724532,3.65845 -12.517034,8.16126 -1.647935,4.13959 4.191129,8.49513 3.402315,12.85613 -0.704064,3.89223 -7.52931,5.97204 -6.896617,9.87171 0.337706,2.08147 4.826947,1.86052 5.176028,3.94026 0.265679,1.58275 -2.211391,2.51918 -2.759055,4.03715 -1.068076,2.96036 -1.641928,6.32076 -0.835705,9.35009 1.272178,4.78028 4.459666,9.31172 8.530977,12.35003 2.476603,1.84811 8.744932,0.005 8.901472,3.00272 0.110641,2.11984 -3.820487,2.55756 -6.040138,2.74268 -3.875673,0.32327 -8.041071,-5.09989 -11.233156,-2.97286 -1.410306,0.93968 -1.267217,3.47674 -0.415973,4.89693 0.344663,0.57492 1.617913,0.25167 1.875985,0.8667 0.803755,1.9154 -2.399108,3.75049 -2.272972,5.81169 0.06076,0.99273 0.584072,2.07039 1.429743,2.65079 1.533647,1.0525 4.96086,-0.8741 5.608981,0.8186 0.641529,1.6756 -3.560384,2.2695 -3.691329,4.0506 -0.141787,1.9288 1.31165,4.5781 3.318978,4.8511 3.607264,0.4903 5.198572,-8.5443 8.330157,-6.7751 1.232227,0.6962 -0.382738,2.7349 -0.892552,4.0142 -0.76822,1.9272 -3.50974,3.3379 -3.210985,5.3773 0.334511,2.2831 2.765361,4.8581 5.185487,4.828 3.520239,-0.039 4.044522,-6.1657 7.394089,-7.2076 1.65503,-0.5146 3.90866,-0.34 5.14189,0.8254 0.67094,0.6339 0.91651,1.8537 0.49553,2.6624 -1.70231,3.2708 -6.843799,3.288 -10.217546,5.0188 -1.718654,0.8816 -4.596578,0.9382 -5.103983,2.733 -0.889042,3.1455 2.245462,6.7979 5.221462,8.3868 1.355529,0.7236 3.782181,-1.2749 4.667237,-0.058 0.95324,1.3107 -2.246294,2.9266 -1.819142,4.4694 0.309762,1.119 1.613512,2.0876 2.823472,2.1908 2.63358,0.2252 4.33357,-3.9109 6.96293,-3.646 1.86245,0.1877 3.62495,1.8208 4.23803,3.506 0.77881,2.1408 -2.30357,4.6206 -1.33124,6.6879 0.97026,2.063 3.7365,3.3191 6.10452,3.4829 2.5063,0.1737 4.53767,-3.3343 6.97437,-2.7541 1.93153,0.4602 1.99406,3.5644 3.78037,4.4004 3.3506,1.5678 7.50157,0.7955 11.20476,0.3058 1.60956,-0.2127 4.654,-1.3908 4.654,-1.3908 4.66723,11.9753 1.42624,-6.5889 5.82968,1.2388 3.71436,0.382 7.8855,1.0336 11.19468,-0.6309 1.76421,-0.8874 1.7472,-3.9922 3.66622,-4.5084 2.42095,-0.6505 4.53952,2.7974 7.04042,2.5511 2.36293,-0.2327 5.09598,-1.5685 6.01302,-3.659 0.91901,-2.0945 -2.22383,-4.4841 -1.50017,-6.6466 0.56967,-1.7024 2.28969,-3.3861 4.14664,-3.6276 2.62159,-0.341 4.42692,3.744 7.05375,3.4427 1.20685,-0.1384 2.48532,-1.1445 2.7663,-2.272 0.38746,-1.5545 -2.85422,-3.0771 -1.93491,-4.4148 0.85355,-1.2426 3.3305,0.6848 4.66696,-0.079 2.93419,-1.6744 5.97588,-5.4165 5.00658,-8.535 -0.55321,-1.7796 -3.43342,-1.7525 -5.17403,-2.5841 -3.41684,-1.6322 -8.55494,-1.5002 -10.34041,-4.7205 -0.44154,-0.7964 -0.22923,-2.0223 0.42521,-2.6757 1.2029,-1.2009 3.45313,-1.4407 5.12075,-0.9742 3.37502,0.9443 4.05413,7.053 7.57407,6.9903 2.42006,-0.035 4.78398,-2.6845 5.05987,-4.9766 0.24639,-2.0471 -2.53027,-3.3779 -3.34758,-5.2823 -0.54238,-1.2639 -2.20706,-3.255 -0.99313,-3.9866 3.08509,-1.8594 4.90728,7.1257 8.50065,6.5309 1.99957,-0.3311 3.3846,-3.0214 3.19346,-4.9455 -0.17655,-1.7767 -4.39211,-2.2486 -3.79375,-3.94208 0.60452,-1.71088 4.0798,0.11558 5.58591,-0.981 0.8305,-0.60471 1.32408,-1.69712 1.35937,-2.69123 0.0733,-2.06409 -3.1754,-3.80559 -2.42102,-5.74361 0.24222,-0.62229 1.52328,-0.33609 1.8531,-0.92078 0.81452,-1.44436 0.8945,-3.98464 -0.53938,-4.88308 -3.24539,-2.03365 -7.2722,3.50836 -11.15472,3.2976 -2.22356,-0.12066 -6.16253,-0.44424 -6.10625,-2.5665 0.0797,-3.00123 6.39098,-1.34051 8.81929,-3.25976 3.99195,-3.15528 7.06217,-7.77747 8.2114,-12.59288 0.72831,-3.05158 0.0706,-6.39411 -1.07304,-9.32242 -0.58636,-1.50151 -3.08649,-2.36575 -2.86147,-3.95561 0.29567,-2.08909 4.7889,-1.99842 5.07316,-4.08892 0.53254,-3.91657 -6.34538,-5.79761 -7.14892,-9.66798 -0.90023,-4.33649 4.82507,-8.8598 3.07167,-12.95003 -1.90719,-4.44914 -10.16009,-3.65663 -12.72148,-7.79518 -1.50179,-2.42644 1.66351,-6.62417 -0.59457,-8.44162 -2.85819,-2.3006 -7.67413,2.30629 -11.18707,1.07459 -2.78677,-0.97716 -3.19136,-6.02338 -6.16144,-6.12505 -4.7384,-0.1622 -6.35531,11.07823 -10.59817,9.07234 -2.79797,-1.32283 2.93054,-6.73534 0.79904,-8.90967 -1.79802,-2.81051 -1.17022,-8.34537 -9.08618,-9.84492 -2.31275,-1.5056 -0.44265,-0.52034 -2.91474,-1.77585 -2.52848,-1.28421 -4.35788,-3.81872 -4.35788,-3.81872 -0.35742,1.26051 -6.13748,3.46821 -6.28469,2.60156 -1.07819,-2.51579 -6.847,2.62183 -8.43725,5.43316 z"
         style="fill:#a53b4a;fill-opacity:1;fill-rule:evenodd;stroke:#c31f26;stroke-width:1.12332451px;stroke-linecap:butt;stroke-linejoin:miter;stroke-opacity:1" />
      <path
         inkscape:transform-center-y="45.002623"
         inkscape:transform-center-x="-1.8106967"
         sodipodi:nodetypes="cccsccccscccc"
         inkscape:connector-curvature="0"
         id="path4897"
         d="m 134.54414,911.47801 c -2.11006,1.85036 -1.73071,5.90514 -3.98289,7.5627 -3.09829,2.28036 -7.50611,1.13552 -11.22671,1.89204 -4.25403,0.86496 -9.00301,0.61921 -12.67407,3.02471 -3.92833,2.57407 -8.0871,6.54329 -8.6912,11.34498 -1.68276,13.37558 7.26661,26.72719 15.57056,37.0614 27.16274,30.21016 34.85915,38.51166 68.29318,0 8.30395,-10.33421 17.25507,-23.68582 15.57231,-37.0614 -0.60411,-4.80169 -4.76287,-8.77091 -8.6912,-11.34498 -3.67106,-2.4055 -8.42179,-2.15975 -12.67582,-3.02471 -3.72059,-0.75652 -8.12667,0.38832 -11.22497,-1.89204 -2.25217,-1.65756 -9.63261,-17.78041 -11.74267,-19.63077 -8.78127,-6.271 -10.00148,4.96149 -18.52652,12.06807 z"
         style="fill:#ba2616;fill-opacity:1;fill-rule:evenodd;stroke:none;stroke-width:0.91238481px;stroke-linecap:butt;stroke-linejoin:miter;stroke-opacity:1" />
      <path
         id="path4902"
         transform="translate(0,752.36218)"
         d="m 127.24609,190.77734 c -1.55857,3.44032 -3.20954,8.74448 -3.44921,15.16211 -0.32903,8.81042 0.37022,17.61179 1.55468,25.92774 -3.27237,8.21569 -0.56135,9.26827 -4.19726,2.5 l -0.39453,-6.86524 c -0.11853,0.49518 2.71362,-6.98353 -0.89063,-11.85742 -1.81984,-2.46094 -2.52849,13.33806 -7.67383,15.75391 -2.34611,1.10155 -5.46852,-0.34357 -7.46679,-2.03516 -1.87983,-1.5912 -0.82641,-6.80865 -3.2461,-6.78125 -2.275041,0.0253 0.14602,3.78017 0.23881,6.15407 0.0738,1.88816 0.14907,3.4121 -0.44389,5.19749 -2.059919,6.20225 -14.824786,4.56401 -16.123043,6.1875 -1.505461,1.88262 1.233881,7.72281 3.277344,6.51368 5.007917,-2.96332 6.690227,-4.19006 9.484375,1.30273 0.969926,1.9067 -4.40382,6.73983 -2.185547,8.58203 2.325402,1.9312 5.381011,-10.11657 12.267581,-3.33789 1.26759,1.2478 2.07553,2.92248 3.10156,4.39258 1.24057,1.7774 4.33001,3.25701 3.69336,5.35351 -1.47819,4.8678 -13.78194,-0.11166 -13.86914,4.99415 -0.0362,2.12 4.72039,0.4216 5.68555,2.2871 0.90794,1.7548 -2.66597,4.55991 -1.20899,5.84961 4.87637,4.3169 14.32491,-12.94728 17.83399,-7.36718 2.0564,3.2701 -7.36738,4.43382 -7.94727,8.29882 -0.5984,3.9883 1.81452,9.02279 5.29883,10.77149 2.32131,1.165 5.02236,-1.98172 7.57226,-1.60352 2.88222,0.4276 4.94925,5.10167 7.73828,4.23047 1.953,-0.61008 1.19179,-5.26393 2.75196,-5.99609 3.05694,7.1236 5.81619,7.85109 9.41211,0.0488 1.79162,0.90339 2.71941,5.78636 5.1914,5.94726 2.18681,0.1423 3.18919,-3.26537 5.17578,-4.23047 2.00285,-0.973 3.95098,-1.89477 6.48633,-1.42187 11.26831,2.1016 12.05093,-1.252 6.38672,-7.7461 -2.52266,-2.8923 -10.05563,-5.06502 -7.94726,-8.29882 2.53829,-3.8932 7.90968,5.29361 12.4082,5.63281 3.04147,0.2293 5.88544,-1.66727 8.82617,-2.50977 3.26196,-0.9345 9.81132,0.70994 9.78125,-2.82226 -0.0691,-8.1137 -23.53742,1.98734 -22.57617,-6.06446 0.33367,-2.795 6.13609,1.9071 8.0918,-0.0332 2.25174,-2.2333 -0.479,-7.48459 0.51562,-9.71289 4.24467,-9.50962 13.65899,4.56569 15.88867,-0.0664 1.21791,-2.5301 -6.41523,-4.40584 -5.44531,-6.3125 2.79415,-5.4928 2.30264,-3.13128 7.31055,-0.16796 2.04347,1.20919 4.1227,-4.22456 3.27929,-6.51368 -2.05613,-5.58062 -14.17416,-0.567 -16.12304,-6.18945 -0.61591,-1.77689 -1.95437,-4.74405 -1.88057,-6.63221 0.0928,-2.37389 3.95052,-4.69208 1.67549,-4.7174 -2.41969,-0.0274 -1.09512,5.62764 -3.24805,6.78125 -1.62748,0.87206 -4.0896,0.40701 -5.41797,-0.90625 -2.91205,-2.87891 -0.73094,-14.73828 -2.55078,-12.27734 -3.60425,4.87389 -3.07879,12.88579 -5.50195,12.39062 l -2.95313,5.79688 c -4.01492,1.4304 -0.52953,1.62616 -3.30664,-5.75586 0.91306,-7.34135 1.40749,-15.00289 1.1211,-22.67188 -0.23968,-6.41763 -1.88872,-11.72179 -3.44727,-15.16211 -10.11946,3.64013 -16.9099,5.81818 -32.55469,0 z"
         style="fill:#c31f26;fill-opacity:1;fill-rule:evenodd;stroke:#a53b4a;stroke-width:0.66439897px;stroke-linecap:butt;stroke-linejoin:miter;stroke-opacity:1"
         inkscape:connector-curvature="0"
         sodipodi:nodetypes="csccccsccccccscccccccccccccccsccsccccccccccccccccccccccc" />
      <path
         id="path4854"
         transform="translate(0,752.36218)"
         d="m 109.68164,160.45312 c -2.23937,0.2228 -4.04558,4.61282 -6.55078,5.375 -1.94936,0.59308 -4.557795,-1.59303 -6.070313,-0.12695 -2.468408,2.39261 1.36351,8.47399 -0.970703,10.75195 -1.323109,1.29128 -3.508808,-1.3296 -5.097656,-0.58203 -1.813913,0.85356 -3.213848,3.04037 -3.884766,5.23047 -1.170403,3.82043 -0.958278,8.39607 0.242187,12.20313 1.156117,3.66651 7.57423,5.52819 6.3125,9.00781 -1.231088,3.39512 -8.623597,-0.91703 -10.189453,2.32422 -1.693796,3.5061 2.51096,6.36045 4.613282,10.75195 1.258234,2.62831 -3.650856,5.95053 -2.185547,8.42578 2.606513,4.403 12.724796,-1.73068 14.578129,3.07032 1.87041,4.84526 -10.746694,8.16393 -8.54102,12.88671 2.24524,4.80746 10.67159,-2.84967 14.84375,0.0508 2.5615,1.78075 0.90456,8.28034 3.87109,8.99414 3.9215,0.9435 5.31389,-9.40693 9.23047,-8.43946 1.90413,0.47037 0.66192,5.33852 2.42774,5.8125 2.81204,0.75464 4.27779,-8.06355 6.79883,-6.39257 1.99367,1.32146 -2.90105,7.31257 -0.72852,8.13671 4.76578,1.8076 2.52667,-17.53356 7.2832,-15.6914 5.19562,2.01215 -7.28355,18.11335 -1.9414,19.46875 4.46444,1.13279 7.68262,-2.87362 9.76172,-8.91797 2.07909,6.044 5.29548,10.05072 9.75976,8.91797 5.34215,-1.3554 -7.13897,-17.4566 -1.94336,-19.46875 4.75654,-1.84216 2.51938,17.499 7.28516,15.6914 2.17253,-0.82414 -2.7222,-6.81525 -0.72852,-8.13671 2.52103,-1.67098 3.98484,7.14721 6.79688,6.39257 1.76582,-0.47398 0.52555,-5.34213 2.42968,-5.8125 3.91658,-0.96747 5.30897,9.38296 9.23047,8.43946 2.96654,-0.7138 1.3096,-7.21339 3.8711,-8.99414 4.17216,-2.90046 12.59851,4.75667 14.84375,-0.0508 2.20567,-4.72278 -10.28475,-7.93966 -8.54102,-12.88671 1.60556,-4.55508 10.32844,0.58752 13.12891,-3.07032 1.5289,-1.99699 -0.27593,-5.12809 -0.0117,-7.66992 0.40599,-3.90578 4.41151,-8.16208 2.43945,-11.50781 -1.57594,-2.67371 -7.78125,1.0582 -8.74023,-2.32422 -1.05211,-3.71109 5.15639,-5.3413 6.3125,-9.00781 1.20047,-3.80706 1.41259,-8.3827 0.24219,-12.20313 -0.67092,-2.1901 -2.07086,-4.37691 -3.88477,-5.23047 -1.58885,-0.74757 -3.77455,1.87331 -5.09766,0.58203 -2.33421,-2.27796 1.4977,-8.35934 -0.9707,-10.75195 -1.51253,-1.46608 -4.12096,0.72003 -6.07031,0.12695 -2.8631,-0.87107 -4.81141,-6.48131 -7.53906,-5.19335 -2.33511,1.10261 -1.44141,8.17382 -1.44141,8.17382 0.52095,4.31634 -7.6835,4.40557 -12.38477,6.19141 l 11.41016,0.58008 c 24.22669,0.1318 -10.05351,2.30414 -16.02344,3.48828 l 16.26758,0.87109 c 38.01387,-1.58629 -10.68395,3.68122 -16.02539,5.52149 l 15.53906,-0.29102 c 31.29259,-0.5519 -9.03098,3.37358 -16.26758,5.23047 l 10.6836,1.74219 c 33.06145,7.60082 -6.1348,1.48449 -14.81055,1.16211 l 10.68359,7.55664 c 23.38282,19.69491 2.99666,6.72637 -8.49804,-1.16406 l 2.66992,6.68359 c 9.9741,19.10031 5.06503,21.92432 -6.79883,-6.68359 l 1.94336,12.78515 c 6.22356,27.19458 -4.86577,-4.97983 -7.2832,-11.91211 l 2.18359,17.4336 c 0.9025,10.24511 0.0926,10.07983 -1.875,0.62695 -0.22779,-3.76262 -0.76089,-7.0789 -1.62109,-9.34375 l -0.72852,-8.42578 c -0.15511,0.94219 -0.28597,1.67063 -0.43554,2.56055 -0.14959,-0.89003 -0.28237,-1.61824 -0.4375,-2.56055 l -0.72852,8.42578 c -0.86049,2.26562 -1.39344,5.58345 -1.62109,9.34766 -1.96698,9.44905 -2.77933,9.61288 -1.87696,-0.63086 l 2.18555,-17.4336 c -2.41744,6.93228 -13.50677,39.10669 -7.2832,11.91211 l 1.9414,-12.78515 c -11.86386,28.60791 -16.77097,25.7839 -6.79687,6.68359 l 2.66992,-6.68359 c -11.49471,7.89043 -31.880872,20.85897 -8.49805,1.16406 l 10.6836,-7.55664 c -8.67576,0.32238 -47.871992,6.43871 -14.81055,-1.16211 l 10.68359,-1.74219 c -7.23661,-1.85689 -47.560171,-5.78237 -16.26758,-5.23047 l 15.53907,0.29102 c -5.34143,-1.84027 -54.039272,-7.10778 -16.02539,-5.52149 l 16.26758,-0.87109 c -5.96993,-1.18414 -40.250126,-3.35648 -16.02344,-3.48828 L 124.49609,175 c -4.70126,-1.78584 -12.90571,-1.87507 -12.38476,-6.19141 0,0 0.89369,-7.07121 -1.44141,-8.17382 -0.34095,-0.161 -0.66837,-0.21347 -0.98828,-0.18165 z"
         style="fill:#f65a16;fill-opacity:1;fill-rule:evenodd;stroke:none;stroke-width:1.30968809px;stroke-linecap:butt;stroke-linejoin:miter;stroke-opacity:1"
         inkscape:connector-curvature="0" />
      <path
         sodipodi:nodetypes="aaca"
         inkscape:connector-curvature="0"
         id="path4867"
         d="m 135.65691,930.40519 c 2.63203,7.25845 14.7609,9.67773 19.36752,3.45928 6.21799,-8.39363 -2.51661,-24.47603 -6.18888,-31.60417 -6.0328,9.6571 -16.57664,18.77409 -13.17864,28.14489 z"
         style="fill:#df5d0c;fill-opacity:1;fill-rule:evenodd;stroke:none;stroke-width:0.99990398px;stroke-linecap:butt;stroke-linejoin:miter;stroke-opacity:1" />
      <path
         sodipodi:nodetypes="caac"
         inkscape:connector-curvature="0"
         id="path4865"
         d="m 148.1467,907.37114 c -2.77673,8.46906 -12.83825,16.09629 -9.21789,23.79255 1.76767,3.75777 8.56705,6.52305 11.81883,3.94014 7.27036,-5.77489 0.34326,-16.81565 -2.60094,-27.73269 z"
         style="fill:#940805;fill-opacity:1;fill-rule:evenodd;stroke:none;stroke-width:0.99990398px;stroke-linecap:butt;stroke-linejoin:miter;stroke-opacity:1" />
    </g>
  </g>
</svg>
